<mxfile host="Electron" agent="Mozilla/5.0 (Macintosh; Intel Mac OS X 10_15_7) AppleWebKit/537.36 (KHTML, like Gecko) draw.io/24.7.17 Chrome/128.0.6613.36 Electron/32.0.1 Safari/537.36" version="24.7.17">
  <diagram name="Страница — 1" id="mTMPOYzORja2uFlswyFQ">
    <mxGraphModel dx="1114" dy="822" grid="1" gridSize="10" guides="1" tooltips="1" connect="1" arrows="1" fold="1" page="1" pageScale="1" pageWidth="1169" pageHeight="827" math="0" shadow="0">
      <root>
        <mxCell id="0" />
        <mxCell id="1" parent="0" />
        <mxCell id="VIoggCkv6tHKB63BQBM0-9" style="edgeStyle=orthogonalEdgeStyle;rounded=0;orthogonalLoop=1;jettySize=auto;html=1;" edge="1" parent="1" source="VIoggCkv6tHKB63BQBM0-1" target="VIoggCkv6tHKB63BQBM0-2">
          <mxGeometry relative="1" as="geometry" />
        </mxCell>
        <mxCell id="VIoggCkv6tHKB63BQBM0-20" style="edgeStyle=orthogonalEdgeStyle;rounded=0;orthogonalLoop=1;jettySize=auto;html=1;" edge="1" parent="1" source="VIoggCkv6tHKB63BQBM0-1" target="VIoggCkv6tHKB63BQBM0-3">
          <mxGeometry relative="1" as="geometry" />
        </mxCell>
        <mxCell id="VIoggCkv6tHKB63BQBM0-1" value="Получить видео" style="rounded=1;whiteSpace=wrap;html=1;" vertex="1" parent="1">
          <mxGeometry x="130" y="270" width="120" height="60" as="geometry" />
        </mxCell>
        <mxCell id="VIoggCkv6tHKB63BQBM0-2" value="Сохранить видео" style="rounded=1;whiteSpace=wrap;html=1;" vertex="1" parent="1">
          <mxGeometry x="130" y="384" width="120" height="60" as="geometry" />
        </mxCell>
        <mxCell id="VIoggCkv6tHKB63BQBM0-11" style="edgeStyle=orthogonalEdgeStyle;rounded=0;orthogonalLoop=1;jettySize=auto;html=1;" edge="1" parent="1" source="VIoggCkv6tHKB63BQBM0-3" target="VIoggCkv6tHKB63BQBM0-4">
          <mxGeometry relative="1" as="geometry" />
        </mxCell>
        <mxCell id="VIoggCkv6tHKB63BQBM0-3" value="Распознать событие" style="rounded=1;whiteSpace=wrap;html=1;" vertex="1" parent="1">
          <mxGeometry x="320" y="270" width="120" height="60" as="geometry" />
        </mxCell>
        <mxCell id="VIoggCkv6tHKB63BQBM0-12" style="edgeStyle=orthogonalEdgeStyle;rounded=0;orthogonalLoop=1;jettySize=auto;html=1;" edge="1" parent="1" source="VIoggCkv6tHKB63BQBM0-4" target="VIoggCkv6tHKB63BQBM0-5">
          <mxGeometry relative="1" as="geometry" />
        </mxCell>
        <mxCell id="VIoggCkv6tHKB63BQBM0-4" value="Отфильтровать действующие события" style="rounded=1;whiteSpace=wrap;html=1;" vertex="1" parent="1">
          <mxGeometry x="500" y="270" width="120" height="60" as="geometry" />
        </mxCell>
        <mxCell id="VIoggCkv6tHKB63BQBM0-13" style="edgeStyle=orthogonalEdgeStyle;rounded=0;orthogonalLoop=1;jettySize=auto;html=1;" edge="1" parent="1" source="VIoggCkv6tHKB63BQBM0-5" target="VIoggCkv6tHKB63BQBM0-6">
          <mxGeometry relative="1" as="geometry" />
        </mxCell>
        <mxCell id="VIoggCkv6tHKB63BQBM0-17" value="" style="edgeStyle=orthogonalEdgeStyle;rounded=0;orthogonalLoop=1;jettySize=auto;html=1;" edge="1" parent="1" source="VIoggCkv6tHKB63BQBM0-5" target="VIoggCkv6tHKB63BQBM0-16">
          <mxGeometry relative="1" as="geometry" />
        </mxCell>
        <mxCell id="VIoggCkv6tHKB63BQBM0-21" style="edgeStyle=orthogonalEdgeStyle;rounded=0;orthogonalLoop=1;jettySize=auto;html=1;" edge="1" parent="1" source="VIoggCkv6tHKB63BQBM0-5" target="VIoggCkv6tHKB63BQBM0-18">
          <mxGeometry relative="1" as="geometry" />
        </mxCell>
        <mxCell id="VIoggCkv6tHKB63BQBM0-5" value="Сформировать сообщение" style="rounded=1;whiteSpace=wrap;html=1;" vertex="1" parent="1">
          <mxGeometry x="670" y="270" width="120" height="60" as="geometry" />
        </mxCell>
        <mxCell id="VIoggCkv6tHKB63BQBM0-6" value="Отправить сообщение" style="rounded=1;whiteSpace=wrap;html=1;" vertex="1" parent="1">
          <mxGeometry x="850" y="270" width="120" height="60" as="geometry" />
        </mxCell>
        <mxCell id="VIoggCkv6tHKB63BQBM0-16" value="Запросить дополнительные связанные данные" style="whiteSpace=wrap;html=1;rounded=1;" vertex="1" parent="1">
          <mxGeometry x="670" y="384" width="120" height="60" as="geometry" />
        </mxCell>
        <mxCell id="VIoggCkv6tHKB63BQBM0-18" value="Создать ссылки на фрагменты видео" style="whiteSpace=wrap;html=1;rounded=1;" vertex="1" parent="1">
          <mxGeometry x="670" y="160" width="120" height="60" as="geometry" />
        </mxCell>
      </root>
    </mxGraphModel>
  </diagram>
</mxfile>
